<svg width="32" height="32" viewBox="0 0 200 200" fill="none" xmlns="http://www.w3.org/2000/svg">
<path fill-rule="evenodd" clip-rule="evenodd" d="M83.3555 4.2971C93.7339 -1.43237 106.266 -1.43237 116.645 4.2971L176.811 37.5128C188.022 43.7016 195 55.6167 195 68.5686V131.431C195 144.383 188.022 156.298 176.811 162.487L116.645 195.703C106.266 201.432 93.7339 201.432 83.3555 195.703L23.1889 162.487C11.9785 156.298 5 144.383 5 131.431L5 68.5686C5 55.6167 11.9784 43.7016 23.1889 37.5128L83.3555 4.2971Z" fill="#6FDC80"/>
<path d="M99.7076 64.5304V33.3745C125.867 33.3745 147.08 54.7577 147.099 81.145H99.7076V88.034C125.867 88.034 147.08 109.417 147.099 135.804H99.7076V166.941C73.5487 166.941 52.3349 145.568 52.3159 119.171H99.7076V112.301C73.5487 112.301 52.3349 90.9272 52.3159 64.5304H99.7076Z" fill="#122424"/>
</svg>
